<?xml version="1.0" standalone="no"?>
<!DOCTYPE svg PUBLIC "-//W3C//DTD SVG 20010904//EN"
 "http://www.w3.org/TR/2001/REC-SVG-20010904/DTD/svg10.dtd">
<svg version="1.0" xmlns="http://www.w3.org/2000/svg"
 width="222.000000pt" height="300.000000pt" viewBox="0 0 222.000000 300.000000"
 preserveAspectRatio="xMidYMid meet">

<g transform="translate(0.000000,300.000000) scale(0.100000,-0.100000)"
fill="#000000" stroke="none">
<path d="M1917 1352 c10 -7 23 -10 30 -8 7 3 15 1 18 -5 4 -5 11 -7 16 -4 5 4
9 1 9 -4 0 -6 3 -10 8 -9 13 4 62 -34 62 -48 0 -8 4 -14 8 -14 17 0 29 -46 27
-100 -1 -30 -3 -55 -4 -55 -2 0 -4 -9 -6 -20 -2 -11 -9 -21 -14 -23 -6 -2 -11
-10 -11 -18 0 -8 -4 -14 -10 -14 -5 0 -10 -6 -10 -14 0 -28 -188 -184 -204
-169 -3 4 -6 1 -6 -5 0 -6 9 -10 20 -9 11 1 20 5 20 10 0 5 7 7 15 3 8 -3 15
-1 15 4 0 6 3 9 8 8 4 -1 25 7 47 19 22 11 43 21 48 22 4 0 17 10 29 21 12 11
25 20 30 20 11 0 90 87 108 119 8 14 18 28 23 29 4 2 5 8 1 13 -3 5 -2 14 2
21 4 6 7 26 7 43 0 17 -3 37 -7 43 -4 7 -4 17 -1 22 3 6 1 10 -6 10 -7 0 -9 3
-5 7 9 9 -81 93 -100 93 -7 0 -14 4 -14 8 0 10 -1 10 -98 14 -61 3 -70 1 -55
-10z"/>
<path d="M620 1331 c-12 -7 -53 -17 -115 -27 -5 -1 -13 -3 -17 -4 -5 -1 -11
-3 -15 -5 -5 -1 -16 -5 -25 -9 -9 -4 -25 -9 -35 -11 -10 -2 -20 -4 -23 -5 -3
-1 -8 -2 -12 -1 -5 0 -8 -3 -8 -8 0 -8 -46 -24 -54 -19 -2 2 -19 -13 -37 -32
-28 -29 -31 -35 -16 -38 9 -2 17 -8 17 -13 0 -6 4 -8 9 -4 5 3 12 1 16 -4 3
-6 12 -8 20 -4 8 3 15 0 15 -6 0 -6 7 -8 15 -5 8 3 20 2 27 -2 6 -4 23 -9 37
-11 15 -1 44 -5 66 -8 203 -26 842 -13 894 19 6 4 21 7 34 6 12 -1 24 -1 27 0
3 2 16 4 30 6 41 6 64 11 82 18 9 4 22 5 28 1 5 -3 10 -1 10 5 0 7 5 10 12 8
15 -5 49 22 42 34 -3 4 -13 4 -22 -1 -10 -5 -28 -10 -42 -10 -14 0 -41 -3 -60
-6 -54 -8 -130 -17 -185 -21 -27 -1 -90 -6 -140 -10 -49 -3 -200 -6 -335 -5
-312 1 -309 1 -316 12 -3 6 -14 7 -25 4 -11 -4 -19 -2 -19 4 0 6 -3 10 -7 10
-24 -4 -33 4 -33 31 0 26 7 33 50 55 27 14 60 27 72 29 13 3 25 5 28 6 3 2 7
2 10 2 3 0 11 6 18 14 14 16 5 18 -18 5z"/>
<path d="M590 981 c0 -9 -25 -21 -43 -20 -11 0 -47 -46 -47 -61 0 -7 9 -23 20
-37 11 -14 20 -23 20 -19 0 4 10 1 23 -6 12 -7 25 -12 29 -13 3 0 9 -3 13 -7
4 -4 13 -4 20 -2 7 3 16 1 19 -5 4 -6 13 -8 21 -5 8 3 20 2 27 -2 55 -34 511
-31 678 5 25 5 48 7 53 4 4 -2 14 1 22 7 8 7 21 10 29 7 7 -3 18 -1 23 4 5 5
22 10 39 12 35 4 54 14 54 28 0 6 -4 7 -10 4 -5 -3 -10 -1 -10 4 0 6 -6 11
-13 11 -7 0 -20 9 -30 20 -11 13 -22 18 -30 13 -6 -4 -21 -9 -32 -10 -11 -1
-36 -5 -55 -8 -19 -3 -46 -7 -60 -9 -14 -1 -32 -5 -40 -9 -8 -3 -28 -6 -45 -6
-16 -1 -59 -3 -95 -5 -141 -10 -452 -1 -492 14 -5 1 -12 4 -18 5 -5 1 -12 4
-15 5 -3 1 -9 3 -13 4 -15 2 -42 34 -42 49 0 9 5 17 12 19 9 3 9 6 0 12 -7 4
-12 3 -12 -3z"/>
<path d="M650 652 c0 -7 -4 -10 -10 -7 -5 3 -10 2 -10 -3 0 -5 -11 -14 -24
-21 -17 -10 -22 -19 -18 -35 6 -25 41 -72 50 -69 12 5 42 -8 42 -17 0 -5 7 -7
15 -4 8 4 15 1 15 -6 0 -6 4 -9 10 -5 5 3 25 -1 44 -9 19 -8 37 -12 40 -9 3 3
13 2 23 -3 24 -11 52 -12 228 -12 176 0 204 2 227 12 9 4 22 5 28 1 6 -4 17
-1 25 5 8 7 30 12 50 13 19 1 35 5 35 9 0 5 6 8 13 7 6 -1 25 3 41 10 16 6 37
13 47 14 28 5 33 14 10 22 -12 3 -21 11 -21 16 0 6 -4 7 -10 4 -5 -3 -10 -1
-10 5 0 6 -4 8 -10 5 -5 -3 -10 -1 -10 6 0 7 -3 9 -7 6 -3 -4 -11 -3 -17 2
-15 12 -57 16 -78 6 -10 -4 -24 -5 -32 -2 -8 3 -17 3 -21 -1 -4 -4 -21 -8 -38
-9 -18 -2 -54 -6 -82 -9 -65 -9 -234 -9 -310 -1 -99 12 -120 15 -125 17 -3 1
-16 3 -29 4 -14 2 -37 18 -53 37 -15 18 -28 28 -28 21z"/>
<path d="M345 451 c-3 -5 -1 -12 5 -16 5 -3 10 -1 10 6 0 7 10 9 25 7 13 -3
22 -1 19 3 -7 12 -51 11 -59 0z"/>
<path d="M293 439 c-5 -5 -24 -11 -43 -13 -19 -3 -36 -6 -37 -7 -2 -1 -7 -3
-13 -4 -5 -1 -13 -4 -17 -5 -5 -1 -11 -2 -15 -1 -5 0 -8 -4 -8 -10 0 -5 -4 -7
-10 -4 -6 3 -10 2 -10 -2 0 -7 -53 -34 -70 -36 -3 0 -17 -13 -31 -28 -29 -30
-24 -67 11 -76 11 -3 20 -10 20 -15 0 -5 5 -6 10 -3 6 4 17 1 25 -5 8 -6 19
-9 25 -5 5 3 15 3 22 -1 13 -8 59 -15 98 -16 14 0 30 -4 35 -8 6 -5 26 -9 45
-8 33 0 66 -3 195 -17 146 -17 745 -17 875 -1 25 4 64 8 86 10 23 2 47 7 53
10 6 4 20 4 32 1 11 -4 25 -2 32 3 7 6 23 10 37 11 35 0 63 6 78 15 6 4 17 4
22 1 6 -4 17 -1 25 5 8 6 19 9 24 6 5 -4 13 -1 16 5 4 5 13 8 20 5 8 -3 15 -1
17 4 2 5 17 10 33 12 17 2 32 6 35 10 3 3 14 8 25 10 11 1 22 5 25 8 4 5 33
19 65 31 20 8 51 45 47 56 -5 15 -32 5 -32 -11 0 -11 -68 -56 -87 -58 -5 0
-19 -4 -31 -9 -13 -5 -27 -7 -32 -4 -5 3 -11 1 -15 -4 -3 -5 -13 -10 -23 -10
-36 -2 -69 -8 -80 -15 -7 -4 -21 -4 -33 -1 -11 4 -26 2 -33 -4 -7 -6 -26 -10
-42 -10 -16 0 -51 -3 -79 -7 -119 -15 -392 -28 -595 -27 -221 0 -403 10 -525
28 -22 3 -52 6 -67 6 -16 0 -28 4 -28 10 0 5 -11 7 -25 3 -16 -4 -25 -2 -25 6
0 6 -4 8 -10 5 -5 -3 -16 -3 -22 2 -7 4 -16 8 -20 9 -5 1 -9 2 -10 4 -2 1 -11
3 -20 5 -27 5 -59 40 -52 58 6 17 54 52 54 40 0 -5 4 -2 9 5 4 7 18 14 29 15
12 1 22 5 22 10 0 5 7 7 15 3 8 -3 15 -1 15 3 0 13 -26 21 -37 10z"/>
<path d="M2166 229 c-10 -10 -23 -16 -27 -13 -5 3 -9 0 -9 -6 0 -6 -4 -8 -10
-5 -5 3 -10 1 -10 -4 0 -6 -3 -10 -7 -9 -5 1 -18 -3 -30 -10 -12 -6 -30 -13
-40 -15 -10 -2 -25 -7 -33 -10 -8 -4 -24 -8 -35 -10 -11 -1 -26 -6 -32 -10 -7
-5 -17 -6 -22 -2 -5 3 -12 1 -16 -4 -3 -5 -13 -10 -23 -10 -24 -1 -54 -7 -74
-15 -9 -4 -21 -5 -27 -2 -5 4 -13 1 -16 -5 -4 -6 -18 -8 -30 -5 -13 3 -27 1
-30 -5 -4 -6 -18 -8 -30 -5 -13 3 -27 1 -30 -4 -4 -6 -21 -11 -38 -11 -18 0
-54 -2 -82 -5 -27 -2 -72 -6 -100 -9 -227 -22 -645 -24 -733 -4 -28 6 -49 6
-60 -1 -19 -10 -17 -11 48 -15 19 -1 69 -5 110 -9 214 -19 468 -19 710 0 41 4
93 8 115 9 22 2 58 7 80 10 22 4 52 8 66 9 14 2 30 6 36 9 6 4 18 4 27 1 9 -3
23 -1 31 6 8 6 19 9 24 6 5 -4 13 -1 16 5 4 5 13 8 21 5 7 -3 16 -1 19 4 3 5
12 7 20 3 8 -3 15 0 15 7 0 7 6 10 14 7 7 -3 19 0 25 6 6 6 11 7 11 2 0 -6 4
-4 9 3 4 7 18 14 29 15 12 1 22 6 22 11 0 5 3 7 6 3 3 -3 13 1 22 9 10 8 20
13 23 12 6 -4 73 71 68 76 -2 2 -13 -5 -23 -15z"/>
<path d="M526 61 c-4 -5 3 -7 14 -4 23 6 26 13 6 13 -8 0 -17 -4 -20 -9z"/>
</g>
</svg>
